<?xml version="1.0" encoding="utf-8"?>
<!-- Generator: Adobe Illustrator 24.0.1, SVG Export Plug-In . SVG Version: 6.00 Build 0)  -->
<svg version="1.1" id="Layer_1" xmlns="http://www.w3.org/2000/svg" xmlns:xlink="http://www.w3.org/1999/xlink" x="0px" y="0px"
	 viewBox="0 0 926 133" style="enable-background:new 0 0 926 133;" xml:space="preserve">
<style type="text/css">
	.st0{fill:#335EEA;}
	.st1{fill:url(#SVGID_1_);}
	.st2{fill:url(#SVGID_2_);}
	.st3{fill:url(#SVGID_3_);}
	.st4{fill:url(#SVGID_4_);}
	.st5{fill:url(#SVGID_5_);}
	.st6{fill:url(#SVGID_6_);}
	.st7{fill:url(#SVGID_7_);}
	.st8{fill:url(#SVGID_8_);}
	.st9{fill:url(#SVGID_9_);}
	.st10{fill:url(#SVGID_10_);}
	.st11{fill:url(#SVGID_11_);}
	.st12{fill:url(#SVGID_12_);}
	.st13{fill:url(#SVGID_13_);}
	.st14{fill:url(#SVGID_14_);}
	.st15{fill:url(#SVGID_15_);}
	.st16{fill:url(#SVGID_16_);}
</style>
<g>
	<g>
		<path class="st0" d="M104.3,96.8c-0.7,15.1-13.2,26-29.7,26H40.2V88.9l-12.1-5.3v49.3h46.4c24,0,41.8-16.4,41.8-38.1
			c0-0.3,0-0.6,0-0.9C112.7,95.2,108.7,96.2,104.3,96.8z"/>
		<path class="st0" d="M111.8,44.2C102.6,23.9,97.7,5.5,85,1.2c-7.4-2.5-11.1-0.5-14.6,1.2c-1.1,0.5-1.3,2-0.4,2.8
			c2,1.7,4.5,3.8,7.4,6.5C66.6,5.4,36.8-4,33.8,7.4c-2.7,10.3-7.3,25.4-7.3,25.4S2.9,30.4,0.2,40.4c-2.7,10,18.4,29.2,53.3,39.5
			s62,7.6,73.7-5.1C138.9,62.1,127.6,44.5,111.8,44.2z M104.9,44.4c-2.7,2.6-11.5,9.3-30.8,7.9c-20.7-1.5-37.7-13.7-42.1-17.1
			c-0.7-0.5-1-1.3-0.7-2.2c0.3-1,0.7-2.6,1.4-4.7c0.4-1.3,1.9-1.9,3-1.2c8.7,5,22.7,12.3,37.6,13.3c13.3,0.9,21.3-3,26.5-5.9
			c1.1-0.6,2.5-0.1,3,1.1l2.6,6.4C105.6,42.9,105.5,43.8,104.9,44.4z"/>
		<path class="st0" d="M184.6,107.6h-14.6c-6.2,0-11-1.7-14.4-5.1c-3.4-3.4-5.1-8.2-5.1-14.3V46.2c0-6.2,1.7-11,5.1-14.4
			c3.4-3.4,8.2-5.1,14.4-5.1h14.6c6.1,0,10.9,1.7,14.3,5.1c3.4,3.4,5.1,8.2,5.1,14.4v6c0,1.5-0.7,2.3-2.3,2.3H194
			c-1.4,0-2.1-0.7-2.1-2.3v-5.5c0-6.2-3-9.3-9-9.3h-11c-6,0-9,3.1-9,9.3v40.9c0,6.2,3,9.3,9,9.3h11c6,0,9-3.1,9-9.3v-5.5
			c0-1.5,0.7-2.3,2.1-2.3h7.9c1.5,0,2.3,0.7,2.3,2.3v6c0,6.1-1.7,10.9-5.1,14.3C195.6,105.9,190.8,107.6,184.6,107.6z"/>
		<path class="st0" d="M223.5,127.9h-6.7c-1.4,0-2.1-0.7-2.1-2.1v-6.4c0-1.5,0.7-2.3,2.1-2.3h2.9c5.1,0,8.7-1,10.6-3
			c2-2,3.6-5.3,5-9.9h-5c-1.2,0-2.1-0.7-2.6-2.1L211,45.6c-0.3-1.4,0.2-2.1,1.6-2.1h8.4c1.3,0,2.2,0.7,2.5,2.1l13.7,49.3h0.5
			l13.7-49.3c0.2-1.4,1.1-2.1,2.5-2.1h8.1c1.6,0,2.3,0.7,2,2.3l-17.3,60.5c-1.9,7.1-4.6,12.4-8.2,16.2
			C235.1,126.1,230.1,127.9,223.5,127.9z"/>
		<path class="st0" d="M272.2,105.4V21.3c0-1.4,0.7-2.1,2.1-2.1h7.9c1.4,0,2.1,0.7,2.1,2.1v28.4h0.5c2.1-4.5,6.4-6.8,12.7-6.8h5.5
			c6.2,0,11,1.7,14.5,5.1c3.4,3.4,5.1,8.2,5.1,14.3v25.8c0,6.1-1.7,10.9-5.1,14.3c-3.4,3.4-8.3,5.1-14.5,5.1h-28.8
			C272.9,107.6,272.2,106.8,272.2,105.4z M285.8,96.9h15.6c6,0,9-3.1,9-9.3V62.9c0-6.2-3-9.3-9-9.3h-6.7c-6.9,0-10.3,3.5-10.3,10.6
			v31.3C284.4,96.4,284.9,96.9,285.8,96.9z"/>
		<path class="st0" d="M380.3,107.6h-27.2c-6.2,0-11-1.7-14.4-5.1c-3.4-3.4-5.1-8.2-5.1-14.3V62.9c0-6.2,1.7-11,5.1-14.4
			c3.4-3.4,8.2-5.1,14.4-5.1h10.3c6.2,0,11,1.7,14.5,5.1c3.4,3.4,5.1,8.2,5.1,14.4v16c0,1.5-0.7,2.3-2.3,2.3h-33.7
			c-0.9,0-1.4,0.4-1.4,1.2v5.4c0,6.1,3.1,9.2,9.2,9.2h25.4c1.5,0,2.3,0.7,2.3,2.3v6.3C382.6,106.9,381.8,107.6,380.3,107.6z
			 M347.1,72.6h22.5c0.9,0,1.2-0.4,1.2-1.2v-8.1c0-3.2-0.7-5.5-2.1-7c-1.4-1.5-3.7-2.2-6.9-2.2h-6.9c-3.2,0-5.5,0.7-6.9,2.2
			c-1.4,1.5-2.1,3.8-2.1,7v8.1C345.9,72.2,346.3,72.6,347.1,72.6z"/>
		<path class="st0" d="M404.5,107.6h-7.9c-1.4,0-2.1-0.7-2.1-2.1V45.6c0-1.4,0.7-2.1,2.1-2.1h7.9c1.4,0,2.1,0.7,2.1,2.1v4.8h0.5
			c0.9-2.1,2.4-3.8,4.9-5c2.4-1.2,5-1.9,8-1.9h4.6c1.4,0,2.1,0.7,2.1,2.1v6.5c0,1.6-0.7,2.3-2.1,2H417c-7,0-10.4,3.8-10.4,11.5v39.9
			C406.6,106.8,405.9,107.6,404.5,107.6z"/>
		<path class="st0" d="M435.3,105.4V28.8c0-1.4,0.7-2.1,2.1-2.1h30.9c6.1,0,10.9,1.7,14.4,5.1c3.5,3.4,5.2,8.2,5.2,14.4v41.9
			c0,6.1-1.7,10.9-5.2,14.3c-3.5,3.4-8.3,5.1-14.4,5.1h-30.9C436,107.6,435.3,106.8,435.3,105.4z M448.9,96.9h17.7c6,0,9-3.1,9-9.3
			V46.7c0-6.2-3-9.3-9-9.3h-17.7c-0.9,0-1.4,0.4-1.4,1.2v56.9C447.5,96.4,448,96.9,448.9,96.9z"/>
		<path class="st0" d="M546.8,107.6h-27.2c-6.2,0-11-1.7-14.4-5.1c-3.4-3.4-5.1-8.2-5.1-14.3V62.9c0-6.2,1.7-11,5.1-14.4
			c3.4-3.4,8.2-5.1,14.4-5.1h10.3c6.2,0,11,1.7,14.5,5.1c3.4,3.4,5.1,8.2,5.1,14.4v16c0,1.5-0.7,2.3-2.3,2.3h-33.7
			c-0.9,0-1.4,0.4-1.4,1.2v5.4c0,6.1,3.1,9.2,9.2,9.2h25.4c1.5,0,2.3,0.7,2.3,2.3v6.3C549.1,106.9,548.3,107.6,546.8,107.6z
			 M513.6,72.6h22.5c0.9,0,1.2-0.4,1.2-1.2v-8.1c0-3.2-0.7-5.5-2.1-7c-1.4-1.5-3.7-2.2-6.9-2.2h-6.9c-3.2,0-5.5,0.7-6.9,2.2
			c-1.4,1.5-2.1,3.8-2.1,7v8.1C512.3,72.2,512.7,72.6,513.6,72.6z"/>
		<path class="st0" d="M580.2,43.4h10.6c1.5,0,2.3,0.7,2.3,2V52c0,1.4-0.7,2.1-2.3,2.1h-10.6c-0.9,0-1.2,0.4-1.2,1.2v50.1
			c0,1.4-0.7,2.1-2.3,2.1h-7.9c-1.4,0-2.1-0.7-2.1-2.1v-50c0-0.9-0.5-1.2-1.4-1.2h-6.7c-1.4,0-2.1-0.7-2.1-2.1v-6.5
			c0-0.7,0.1-1.3,0.4-1.6c0.3-0.3,0.9-0.4,1.7-0.4h6.7c0.9,0,1.4-0.4,1.4-1.2v-3.7c0-6.2,1.6-11,4.8-14.3c3.2-3.4,7.8-5,14-5h5.5
			c1.4,0,2.1,0.7,2.1,2v6.5c0,1.4-0.7,2.1-2.1,2.1h-3.8c-3,0-5.1,0.7-6.3,2.2c-1.2,1.5-1.8,3.8-1.8,7.1v3
			C579,43,579.4,43.4,580.2,43.4z"/>
		<path class="st0" d="M645.9,107.6h-27.2c-6.2,0-11-1.7-14.4-5.1c-3.4-3.4-5.1-8.2-5.1-14.3V62.9c0-6.2,1.7-11,5.1-14.4
			c3.4-3.4,8.2-5.1,14.4-5.1h10.3c6.2,0,11,1.7,14.5,5.1c3.4,3.4,5.1,8.2,5.1,14.4v16c0,1.5-0.7,2.3-2.3,2.3h-33.7
			c-0.9,0-1.4,0.4-1.4,1.2v5.4c0,6.1,3.1,9.2,9.2,9.2h25.4c1.5,0,2.3,0.7,2.3,2.3v6.3C648.2,106.9,647.4,107.6,645.9,107.6z
			 M612.7,72.6h22.5c0.9,0,1.2-0.4,1.2-1.2v-8.1c0-3.2-0.7-5.5-2.1-7c-1.4-1.5-3.7-2.2-6.9-2.2h-6.9c-3.2,0-5.5,0.7-6.9,2.2
			c-1.4,1.5-2.1,3.8-2.1,7v8.1C611.5,72.2,611.9,72.6,612.7,72.6z"/>
		<path class="st0" d="M670.1,107.6h-7.9c-1.4,0-2.1-0.7-2.1-2.1V45.6c0-1.4,0.7-2.1,2.1-2.1h7.9c1.4,0,2.1,0.7,2.1,2.1v4.5h0.5
			c2-4.4,6.2-6.7,12.7-6.7h5.5c6.1,0,10.8,1.7,14.1,5c3.3,3.4,4.9,8.2,4.9,14.5v42.5c0,1.4-0.7,2.1-2.3,2.1h-7.9
			c-1.4,0-2.1-0.7-2.1-2.1v-42c0-6.2-3.1-9.3-9.2-9.3h-5.9c-6.9,0-10.3,3.6-10.3,10.7v40.6C672.2,106.8,671.5,107.6,670.1,107.6z"/>
		<path class="st0" d="M746.5,107.6H740c-6,0-10.7-1.7-13.9-5.1c-3.2-3.4-4.9-8.2-4.9-14.4V62.9c0-6.3,1.6-11.1,4.9-14.5
			c3.2-3.4,7.9-5,13.9-5h6.4c6.5,0,10.6,2.2,12.6,6.7h0.5V21.3c0-1.4,0.7-2.1,2.1-2.1h8.1c1.4,0,2.1,0.7,2.1,2.1v84.2
			c0,1.4-0.7,2.1-2.1,2.1h-8.1c-1.4,0-2.1-0.7-2.1-2.1v-4.5H759C757.1,105.4,752.9,107.6,746.5,107.6z M759.5,86.2V64.8
			c0-7.1-3.4-10.7-10.3-10.7h-6.7c-6,0-9,3.1-9,9.3v24.2c0,6.2,3,9.3,9,9.3h6.7C756.1,96.9,759.5,93.3,759.5,86.2z"/>
		<path class="st0" d="M830.6,107.6h-27.2c-6.2,0-11-1.7-14.4-5.1c-3.4-3.4-5.1-8.2-5.1-14.3V62.9c0-6.2,1.7-11,5.1-14.4
			c3.4-3.4,8.2-5.1,14.4-5.1h10.3c6.2,0,11,1.7,14.5,5.1c3.4,3.4,5.1,8.2,5.1,14.4v16c0,1.5-0.7,2.3-2.3,2.3h-33.7
			c-0.9,0-1.4,0.4-1.4,1.2v5.4c0,6.1,3.1,9.2,9.2,9.2h25.4c1.5,0,2.3,0.7,2.3,2.3v6.3C832.9,106.9,832.2,107.6,830.6,107.6z
			 M797.4,72.6H820c0.9,0,1.2-0.4,1.2-1.2v-8.1c0-3.2-0.7-5.5-2.1-7c-1.4-1.5-3.7-2.2-6.9-2.2h-6.9c-3.2,0-5.5,0.7-6.9,2.2
			c-1.4,1.5-2.1,3.8-2.1,7v8.1C796.2,72.2,796.6,72.6,797.4,72.6z"/>
		<path class="st0" d="M854.8,107.6h-7.9c-1.4,0-2.1-0.7-2.1-2.1V45.6c0-1.4,0.7-2.1,2.1-2.1h7.9c1.4,0,2.1,0.7,2.1,2.1v4.8h0.5
			c0.9-2.1,2.4-3.8,4.9-5c2.4-1.2,5-1.9,8-1.9h4.6c1.4,0,2.1,0.7,2.1,2.1v6.5c0,1.6-0.7,2.3-2.1,2h-7.6c-7,0-10.4,3.8-10.4,11.5
			v39.9C856.9,106.8,856.2,107.6,854.8,107.6z"/>
		<path class="st0" d="M907.3,107.6h-23.2c-1.4,0-2.1-0.7-2.1-2.1v-6.2c0-1.3,0.7-2,2.1-2h21.1c5.5,0,8.2-1.9,8.2-5.7v-1.5
			c0-3.4-2-5.9-5.9-7.7l-13.7-6.5c-4.3-2-7.4-4.2-9.3-6.7s-2.9-5.6-2.9-9.6c0-10.8,6-16.2,18-16.2h20.9c1.3,0,2,0.7,2,2.1v6.2
			c0,1.4-0.7,2.1-2,2.1h-18.4c-2.5,0-4.4,0.4-5.8,1.3c-1.3,0.9-2,2-2,3.5V60c0,2.7,2.1,5,6.4,7.1l13.8,7.1c4.4,1.9,7.3,4.2,9,6.8
			c1.6,2.6,2.4,6.1,2.4,10.3C926,102.1,919.8,107.6,907.3,107.6z"/>
	</g>
	<g>
		<linearGradient id="SVGID_1_" gradientUnits="userSpaceOnUse" x1="-2.907609e-07" y1="66.43" x2="926" y2="66.43">
			<stop  offset="4.000000e-02" style="stop-color:#162D6F"/>
			<stop  offset="0.91" style="stop-color:#325DE7"/>
		</linearGradient>
		<path class="st1" d="M104.3,96.8c-0.7,15.1-13.2,26-29.7,26H40.2V88.9l-12.1-5.3v49.3h46.4c24,0,41.8-16.4,41.8-38.1
			c0-0.3,0-0.6,0-0.9C112.7,95.2,108.7,96.2,104.3,96.8z"/>
		<linearGradient id="SVGID_2_" gradientUnits="userSpaceOnUse" x1="-2.907609e-07" y1="66.43" x2="926" y2="66.43">
			<stop  offset="4.000000e-02" style="stop-color:#162D6F"/>
			<stop  offset="0.91" style="stop-color:#325DE7"/>
		</linearGradient>
		<path class="st2" d="M111.8,44.2C102.6,23.9,97.7,5.5,85,1.2c-7.4-2.5-11.1-0.5-14.6,1.2c-1.1,0.5-1.3,2-0.4,2.8
			c2,1.7,4.5,3.8,7.4,6.5C66.6,5.4,36.8-4,33.8,7.4c-2.7,10.3-7.3,25.4-7.3,25.4S2.9,30.4,0.2,40.4c-2.7,10,18.4,29.2,53.3,39.5
			s62,7.6,73.7-5.1C138.9,62.1,127.6,44.5,111.8,44.2z M104.9,44.4c-2.7,2.6-11.5,9.3-30.8,7.9c-20.7-1.5-37.7-13.7-42.1-17.1
			c-0.7-0.5-1-1.3-0.7-2.2c0.3-1,0.7-2.6,1.4-4.7c0.4-1.3,1.9-1.9,3-1.2c8.7,5,22.7,12.3,37.6,13.3c13.3,0.9,21.3-3,26.5-5.9
			c1.1-0.6,2.5-0.1,3,1.1l2.6,6.4C105.6,42.9,105.5,43.8,104.9,44.4z"/>
		<linearGradient id="SVGID_3_" gradientUnits="userSpaceOnUse" x1="-2.907609e-07" y1="66.43" x2="926" y2="66.43">
			<stop  offset="4.000000e-02" style="stop-color:#162D6F"/>
			<stop  offset="0.91" style="stop-color:#325DE7"/>
		</linearGradient>
		<path class="st3" d="M184.6,107.6h-14.6c-6.2,0-11-1.7-14.4-5.1c-3.4-3.4-5.1-8.2-5.1-14.3V46.2c0-6.2,1.7-11,5.1-14.4
			c3.4-3.4,8.2-5.1,14.4-5.1h14.6c6.1,0,10.9,1.7,14.3,5.1c3.4,3.4,5.1,8.2,5.1,14.4v6c0,1.5-0.7,2.3-2.3,2.3H194
			c-1.4,0-2.1-0.7-2.1-2.3v-5.5c0-6.2-3-9.3-9-9.3h-11c-6,0-9,3.1-9,9.3v40.9c0,6.2,3,9.3,9,9.3h11c6,0,9-3.1,9-9.3v-5.5
			c0-1.5,0.7-2.3,2.1-2.3h7.9c1.5,0,2.3,0.7,2.3,2.3v6c0,6.1-1.7,10.9-5.1,14.3C195.6,105.9,190.8,107.6,184.6,107.6z"/>
		<linearGradient id="SVGID_4_" gradientUnits="userSpaceOnUse" x1="-2.907609e-07" y1="66.43" x2="926" y2="66.43">
			<stop  offset="4.000000e-02" style="stop-color:#162D6F"/>
			<stop  offset="0.91" style="stop-color:#325DE7"/>
		</linearGradient>
		<path class="st4" d="M223.5,127.9h-6.7c-1.4,0-2.1-0.7-2.1-2.1v-6.4c0-1.5,0.7-2.3,2.1-2.3h2.9c5.1,0,8.7-1,10.6-3
			c2-2,3.6-5.3,5-9.9h-5c-1.2,0-2.1-0.7-2.6-2.1L211,45.6c-0.3-1.4,0.2-2.1,1.6-2.1h8.4c1.3,0,2.2,0.7,2.5,2.1l13.7,49.3h0.5
			l13.7-49.3c0.2-1.4,1.1-2.1,2.5-2.1h8.1c1.6,0,2.3,0.7,2,2.3l-17.3,60.5c-1.9,7.1-4.6,12.4-8.2,16.2
			C235.1,126.1,230.1,127.9,223.5,127.9z"/>
		<linearGradient id="SVGID_5_" gradientUnits="userSpaceOnUse" x1="-2.907609e-07" y1="66.43" x2="926" y2="66.43">
			<stop  offset="4.000000e-02" style="stop-color:#162D6F"/>
			<stop  offset="0.91" style="stop-color:#325DE7"/>
		</linearGradient>
		<path class="st5" d="M272.2,105.4V21.3c0-1.4,0.7-2.1,2.1-2.1h7.9c1.4,0,2.1,0.7,2.1,2.1v28.4h0.5c2.1-4.5,6.4-6.8,12.7-6.8h5.5
			c6.2,0,11,1.7,14.5,5.1c3.4,3.4,5.1,8.2,5.1,14.3v25.8c0,6.1-1.7,10.9-5.1,14.3c-3.4,3.4-8.3,5.1-14.5,5.1h-28.8
			C272.9,107.6,272.2,106.8,272.2,105.4z M285.8,96.9h15.6c6,0,9-3.1,9-9.3V62.9c0-6.2-3-9.3-9-9.3h-6.7c-6.9,0-10.3,3.5-10.3,10.6
			v31.3C284.4,96.4,284.9,96.9,285.8,96.9z"/>
		<linearGradient id="SVGID_6_" gradientUnits="userSpaceOnUse" x1="-2.907609e-07" y1="66.43" x2="926" y2="66.43">
			<stop  offset="4.000000e-02" style="stop-color:#162D6F"/>
			<stop  offset="0.91" style="stop-color:#325DE7"/>
		</linearGradient>
		<path class="st6" d="M380.3,107.6h-27.2c-6.2,0-11-1.7-14.4-5.1c-3.4-3.4-5.1-8.2-5.1-14.3V62.9c0-6.2,1.7-11,5.1-14.4
			c3.4-3.4,8.2-5.1,14.4-5.1h10.3c6.2,0,11,1.7,14.5,5.1c3.4,3.4,5.1,8.2,5.1,14.4v16c0,1.5-0.7,2.3-2.3,2.3h-33.7
			c-0.9,0-1.4,0.4-1.4,1.2v5.4c0,6.1,3.1,9.2,9.2,9.2h25.4c1.5,0,2.3,0.7,2.3,2.3v6.3C382.6,106.9,381.8,107.6,380.3,107.6z
			 M347.1,72.6h22.5c0.9,0,1.2-0.4,1.2-1.2v-8.1c0-3.2-0.7-5.5-2.1-7c-1.4-1.5-3.7-2.2-6.9-2.2h-6.9c-3.2,0-5.5,0.7-6.9,2.2
			c-1.4,1.5-2.1,3.8-2.1,7v8.1C345.9,72.2,346.3,72.6,347.1,72.6z"/>
		<linearGradient id="SVGID_7_" gradientUnits="userSpaceOnUse" x1="-2.907609e-07" y1="66.43" x2="926" y2="66.43">
			<stop  offset="4.000000e-02" style="stop-color:#162D6F"/>
			<stop  offset="0.91" style="stop-color:#325DE7"/>
		</linearGradient>
		<path class="st7" d="M404.5,107.6h-7.9c-1.4,0-2.1-0.7-2.1-2.1V45.6c0-1.4,0.7-2.1,2.1-2.1h7.9c1.4,0,2.1,0.7,2.1,2.1v4.8h0.5
			c0.9-2.1,2.4-3.8,4.9-5c2.4-1.2,5-1.9,8-1.9h4.6c1.4,0,2.1,0.7,2.1,2.1v6.5c0,1.6-0.7,2.3-2.1,2H417c-7,0-10.4,3.8-10.4,11.5v39.9
			C406.6,106.8,405.9,107.6,404.5,107.6z"/>
		<linearGradient id="SVGID_8_" gradientUnits="userSpaceOnUse" x1="-2.907609e-07" y1="66.43" x2="926" y2="66.43">
			<stop  offset="4.000000e-02" style="stop-color:#162D6F"/>
			<stop  offset="0.91" style="stop-color:#325DE7"/>
		</linearGradient>
		<path class="st8" d="M435.3,105.4V28.8c0-1.4,0.7-2.1,2.1-2.1h30.9c6.1,0,10.9,1.7,14.4,5.1c3.5,3.4,5.2,8.2,5.2,14.4v41.9
			c0,6.1-1.7,10.9-5.2,14.3c-3.5,3.4-8.3,5.1-14.4,5.1h-30.9C436,107.6,435.3,106.8,435.3,105.4z M448.9,96.9h17.7c6,0,9-3.1,9-9.3
			V46.7c0-6.2-3-9.3-9-9.3h-17.7c-0.9,0-1.4,0.4-1.4,1.2v56.9C447.5,96.4,448,96.9,448.9,96.9z"/>
		<linearGradient id="SVGID_9_" gradientUnits="userSpaceOnUse" x1="-2.907609e-07" y1="66.43" x2="926" y2="66.43">
			<stop  offset="4.000000e-02" style="stop-color:#162D6F"/>
			<stop  offset="0.91" style="stop-color:#325DE7"/>
		</linearGradient>
		<path class="st9" d="M546.8,107.6h-27.2c-6.2,0-11-1.7-14.4-5.1c-3.4-3.4-5.1-8.2-5.1-14.3V62.9c0-6.2,1.7-11,5.1-14.4
			c3.4-3.4,8.2-5.1,14.4-5.1h10.3c6.2,0,11,1.7,14.5,5.1c3.4,3.4,5.1,8.2,5.1,14.4v16c0,1.5-0.7,2.3-2.3,2.3h-33.7
			c-0.9,0-1.4,0.4-1.4,1.2v5.4c0,6.1,3.1,9.2,9.2,9.2h25.4c1.5,0,2.3,0.7,2.3,2.3v6.3C549.1,106.9,548.3,107.6,546.8,107.6z
			 M513.6,72.6h22.5c0.9,0,1.2-0.4,1.2-1.2v-8.1c0-3.2-0.7-5.5-2.1-7c-1.4-1.5-3.7-2.2-6.9-2.2h-6.9c-3.2,0-5.5,0.7-6.9,2.2
			c-1.4,1.5-2.1,3.8-2.1,7v8.1C512.3,72.2,512.7,72.6,513.6,72.6z"/>
		<linearGradient id="SVGID_10_" gradientUnits="userSpaceOnUse" x1="-2.907609e-07" y1="66.43" x2="926" y2="66.43">
			<stop  offset="4.000000e-02" style="stop-color:#162D6F"/>
			<stop  offset="0.91" style="stop-color:#325DE7"/>
		</linearGradient>
		<path class="st10" d="M580.2,43.4h10.6c1.5,0,2.3,0.7,2.3,2V52c0,1.4-0.7,2.1-2.3,2.1h-10.6c-0.9,0-1.2,0.4-1.2,1.2v50.1
			c0,1.4-0.7,2.1-2.3,2.1h-7.9c-1.4,0-2.1-0.7-2.1-2.1v-50c0-0.9-0.5-1.2-1.4-1.2h-6.7c-1.4,0-2.1-0.7-2.1-2.1v-6.5
			c0-0.7,0.1-1.3,0.4-1.6c0.3-0.3,0.9-0.4,1.7-0.4h6.7c0.9,0,1.4-0.4,1.4-1.2v-3.7c0-6.2,1.6-11,4.8-14.3c3.2-3.4,7.8-5,14-5h5.5
			c1.4,0,2.1,0.7,2.1,2v6.5c0,1.4-0.7,2.1-2.1,2.1h-3.8c-3,0-5.1,0.7-6.3,2.2c-1.2,1.5-1.8,3.8-1.8,7.1v3
			C579,43,579.4,43.4,580.2,43.4z"/>
		<linearGradient id="SVGID_11_" gradientUnits="userSpaceOnUse" x1="-2.907609e-07" y1="66.43" x2="926" y2="66.43">
			<stop  offset="4.000000e-02" style="stop-color:#162D6F"/>
			<stop  offset="0.91" style="stop-color:#325DE7"/>
		</linearGradient>
		<path class="st11" d="M645.9,107.6h-27.2c-6.2,0-11-1.7-14.4-5.1c-3.4-3.4-5.1-8.2-5.1-14.3V62.9c0-6.2,1.7-11,5.1-14.4
			c3.4-3.4,8.2-5.1,14.4-5.1h10.3c6.2,0,11,1.7,14.5,5.1c3.4,3.4,5.1,8.2,5.1,14.4v16c0,1.5-0.7,2.3-2.3,2.3h-33.7
			c-0.9,0-1.4,0.4-1.4,1.2v5.4c0,6.1,3.1,9.2,9.2,9.2h25.4c1.5,0,2.3,0.7,2.3,2.3v6.3C648.2,106.9,647.4,107.6,645.9,107.6z
			 M612.7,72.6h22.5c0.9,0,1.2-0.4,1.2-1.2v-8.1c0-3.2-0.7-5.5-2.1-7c-1.4-1.5-3.7-2.2-6.9-2.2h-6.9c-3.2,0-5.5,0.7-6.9,2.2
			c-1.4,1.5-2.1,3.8-2.1,7v8.1C611.5,72.2,611.9,72.6,612.7,72.6z"/>
		<linearGradient id="SVGID_12_" gradientUnits="userSpaceOnUse" x1="-2.907609e-07" y1="66.43" x2="926" y2="66.43">
			<stop  offset="4.000000e-02" style="stop-color:#162D6F"/>
			<stop  offset="0.91" style="stop-color:#325DE7"/>
		</linearGradient>
		<path class="st12" d="M670.1,107.6h-7.9c-1.4,0-2.1-0.7-2.1-2.1V45.6c0-1.4,0.7-2.1,2.1-2.1h7.9c1.4,0,2.1,0.7,2.1,2.1v4.5h0.5
			c2-4.4,6.2-6.7,12.7-6.7h5.5c6.1,0,10.8,1.7,14.1,5c3.3,3.4,4.9,8.2,4.9,14.5v42.5c0,1.4-0.7,2.1-2.3,2.1h-7.9
			c-1.4,0-2.1-0.7-2.1-2.1v-42c0-6.2-3.1-9.3-9.2-9.3h-5.9c-6.9,0-10.3,3.6-10.3,10.7v40.6C672.2,106.8,671.5,107.6,670.1,107.6z"/>
		<linearGradient id="SVGID_13_" gradientUnits="userSpaceOnUse" x1="-2.907609e-07" y1="66.43" x2="926" y2="66.43">
			<stop  offset="4.000000e-02" style="stop-color:#162D6F"/>
			<stop  offset="0.91" style="stop-color:#325DE7"/>
		</linearGradient>
		<path class="st13" d="M746.5,107.6H740c-6,0-10.7-1.7-13.9-5.1c-3.2-3.4-4.9-8.2-4.9-14.4V62.9c0-6.3,1.6-11.1,4.9-14.5
			c3.2-3.4,7.9-5,13.9-5h6.4c6.5,0,10.6,2.2,12.6,6.7h0.5V21.3c0-1.4,0.7-2.1,2.1-2.1h8.1c1.4,0,2.1,0.7,2.1,2.1v84.2
			c0,1.4-0.7,2.1-2.1,2.1h-8.1c-1.4,0-2.1-0.7-2.1-2.1v-4.5H759C757.1,105.4,752.9,107.6,746.5,107.6z M759.5,86.2V64.8
			c0-7.1-3.4-10.7-10.3-10.7h-6.7c-6,0-9,3.1-9,9.3v24.2c0,6.2,3,9.3,9,9.3h6.7C756.1,96.9,759.5,93.3,759.5,86.2z"/>
		<linearGradient id="SVGID_14_" gradientUnits="userSpaceOnUse" x1="-2.907609e-07" y1="66.43" x2="926" y2="66.43">
			<stop  offset="4.000000e-02" style="stop-color:#162D6F"/>
			<stop  offset="0.91" style="stop-color:#325DE7"/>
		</linearGradient>
		<path class="st14" d="M830.6,107.6h-27.2c-6.2,0-11-1.7-14.4-5.1c-3.4-3.4-5.1-8.2-5.1-14.3V62.9c0-6.2,1.7-11,5.1-14.4
			c3.4-3.4,8.2-5.1,14.4-5.1h10.3c6.2,0,11,1.7,14.5,5.1c3.4,3.4,5.1,8.2,5.1,14.4v16c0,1.5-0.7,2.3-2.3,2.3h-33.7
			c-0.9,0-1.4,0.4-1.4,1.2v5.4c0,6.1,3.1,9.2,9.2,9.2h25.4c1.5,0,2.3,0.7,2.3,2.3v6.3C832.9,106.9,832.2,107.6,830.6,107.6z
			 M797.4,72.6H820c0.9,0,1.2-0.4,1.2-1.2v-8.1c0-3.2-0.7-5.5-2.1-7c-1.4-1.5-3.7-2.2-6.9-2.2h-6.9c-3.2,0-5.5,0.7-6.9,2.2
			c-1.4,1.5-2.1,3.8-2.1,7v8.1C796.2,72.2,796.6,72.6,797.4,72.6z"/>
		<linearGradient id="SVGID_15_" gradientUnits="userSpaceOnUse" x1="-2.907609e-07" y1="66.43" x2="926" y2="66.43">
			<stop  offset="4.000000e-02" style="stop-color:#162D6F"/>
			<stop  offset="0.91" style="stop-color:#325DE7"/>
		</linearGradient>
		<path class="st15" d="M854.8,107.6h-7.9c-1.4,0-2.1-0.7-2.1-2.1V45.6c0-1.4,0.7-2.1,2.1-2.1h7.9c1.4,0,2.1,0.7,2.1,2.1v4.8h0.5
			c0.9-2.1,2.4-3.8,4.9-5c2.4-1.2,5-1.9,8-1.9h4.6c1.4,0,2.1,0.7,2.1,2.1v6.5c0,1.6-0.7,2.3-2.1,2h-7.6c-7,0-10.4,3.8-10.4,11.5
			v39.9C856.9,106.8,856.2,107.6,854.8,107.6z"/>
		<linearGradient id="SVGID_16_" gradientUnits="userSpaceOnUse" x1="-2.907609e-07" y1="66.43" x2="926" y2="66.43">
			<stop  offset="4.000000e-02" style="stop-color:#162D6F"/>
			<stop  offset="0.91" style="stop-color:#325DE7"/>
		</linearGradient>
		<path class="st16" d="M907.3,107.6h-23.2c-1.4,0-2.1-0.7-2.1-2.1v-6.2c0-1.3,0.7-2,2.1-2h21.1c5.5,0,8.2-1.9,8.2-5.7v-1.5
			c0-3.4-2-5.9-5.9-7.7l-13.7-6.5c-4.3-2-7.4-4.2-9.3-6.7s-2.9-5.6-2.9-9.6c0-10.8,6-16.2,18-16.2h20.9c1.3,0,2,0.7,2,2.1v6.2
			c0,1.4-0.7,2.1-2,2.1h-18.4c-2.5,0-4.4,0.4-5.8,1.3c-1.3,0.9-2,2-2,3.5V60c0,2.7,2.1,5,6.4,7.1l13.8,7.1c4.4,1.9,7.3,4.2,9,6.8
			c1.6,2.6,2.4,6.1,2.4,10.3C926,102.1,919.8,107.6,907.3,107.6z"/>
	</g>
</g>
</svg>
